<svg width="400" height="400" viewBox="0 0 400 400" fill="none" xmlns="http://www.w3.org/2000/svg">
<rect width="400" height="400" fill="#2F3F5C"/>
<path d="M161 169L161.898 171.764H164.804L162.453 173.472L163.351 176.236L161 174.528L158.649 176.236L159.547 173.472L157.196 171.764H160.102L161 169Z" fill="#FDEEBE"/>
<path d="M223 25L223.898 27.7639H226.804L224.453 29.4721L225.351 32.2361L223 30.5279L220.649 32.2361L221.547 29.4721L219.196 27.7639H222.102L223 25Z" fill="#FDEEBE"/>
<path d="M358 190L358.898 192.764H361.804L359.453 194.472L360.351 197.236L358 195.528L355.649 197.236L356.547 194.472L354.196 192.764H357.102L358 190Z" fill="#FDEEBE"/>
<path d="M169 86L169.898 88.7639H172.804L170.453 90.4721L171.351 93.2361L169 91.5279L166.649 93.2361L167.547 90.4721L165.196 88.7639H168.102L169 86Z" fill="#FDEEBE"/>
<path d="M281 216L281.898 218.764H284.804L282.453 220.472L283.351 223.236L281 221.528L278.649 223.236L279.547 220.472L277.196 218.764H280.102L281 216Z" fill="#FDEEBE"/>
<path d="M188 271L188.898 273.764H191.804L189.453 275.472L190.351 278.236L188 276.528L185.649 278.236L186.547 275.472L184.196 273.764H187.102L188 271Z" fill="#FDEEBE"/>
<path d="M92 287L92.8981 289.764H95.8042L93.4531 291.472L94.3511 294.236L92 292.528L89.6489 294.236L90.5469 291.472L88.1958 289.764H91.1019L92 287Z" fill="#FDEEBE"/>
<path d="M344 284L344.898 286.764H347.804L345.453 288.472L346.351 291.236L344 289.528L341.649 291.236L342.547 288.472L340.196 286.764H343.102L344 284Z" fill="#FDEEBE"/>
<path d="M260 140L260.898 142.764H263.804L261.453 144.472L262.351 147.236L260 145.528L257.649 147.236L258.547 144.472L256.196 142.764H259.102L260 140Z" fill="#FDEEBE"/>
<path d="M148 340L148.898 342.764H151.804L149.453 344.472L150.351 347.236L148 345.528L145.649 347.236L146.547 344.472L144.196 342.764H147.102L148 340Z" fill="#FDEEBE"/>
<path d="M269 305L269.898 307.764H272.804L270.453 309.472L271.351 312.236L269 310.528L266.649 312.236L267.547 309.472L265.196 307.764H268.102L269 305Z" fill="#FDEEBE"/>
<path d="M28 244L28.8981 246.764H31.8042L29.4531 248.472L30.3511 251.236L28 249.528L25.6489 251.236L26.5469 248.472L24.1958 246.764H27.1019L28 244Z" fill="#FDEEBE"/>
<path d="M42 122L42.8981 124.764H45.8042L43.4531 126.472L44.3511 129.236L42 127.528L39.6489 129.236L40.5469 126.472L38.1958 124.764H41.1019L42 122Z" fill="#FDEEBE"/>
<path d="M122 29L122.898 31.7639H125.804L123.453 33.4721L124.351 36.2361L122 34.5279L119.649 36.2361L120.547 33.4721L118.196 31.7639H121.102L122 29Z" fill="#FDEEBE"/>
<path fill-rule="evenodd" clip-rule="evenodd" d="M306.046 122.201C322.644 118.295 335 103.39 335 85.6C335 64.8341 318.166 48 297.4 48C281.771 48 268.37 57.5351 262.696 71.1053C257.211 65.7208 249.693 62.4 241.4 62.4C224.611 62.4 211 76.0105 211 92.8C211 109.589 224.611 123.2 241.4 123.2C241.642 123.2 241.883 123.197 242.123 123.192C242.282 123.197 242.44 123.2 242.6 123.2H297.4H301C302.787 123.2 304.492 122.845 306.046 122.201Z" fill="#5E6A81"/>
<path fill-rule="evenodd" clip-rule="evenodd" d="M232.561 87.6045C230.83 86.4143 228.48 88.1135 229.482 89.9592C239.406 108.242 259.866 119.456 281.724 116.586C310.065 112.865 330.023 86.873 326.302 58.532C325.089 49.2952 321.51 40.9489 316.256 34.0225C314.987 32.3493 312.463 33.7921 312.83 35.8599C312.968 36.6375 313.09 37.422 313.193 38.213C316.915 66.554 296.957 92.5457 268.616 96.2671C255.417 98.0002 242.728 94.5976 232.561 87.6045Z" fill="#FFE589" fill-opacity="0.98"/>
<path fill-rule="evenodd" clip-rule="evenodd" d="M222.302 77.6594C220.583 76.453 218.227 78.1453 219.211 80.0005C229.665 99.7052 251.572 111.838 274.989 108.764C305.114 104.808 326.328 77.18 322.373 47.0549C321.059 37.0517 317.135 28.031 311.377 20.5881C310.092 18.927 307.573 20.3775 307.959 22.4418C308.146 23.4363 308.306 24.4415 308.439 25.4568C312.395 55.5818 291.18 83.2097 261.055 87.1654C246.84 89.032 233.18 85.2939 222.302 77.6594Z" fill="#F3C10F"/>
<path fill-rule="evenodd" clip-rule="evenodd" d="M351.046 155.201C367.644 151.295 380 136.39 380 118.6C380 97.8341 363.166 81 342.4 81C326.771 81 313.37 90.5351 307.696 104.105C302.211 98.7208 294.693 95.4 286.4 95.4C269.611 95.4 256 109.011 256 125.8C256 142.589 269.611 156.2 286.4 156.2C286.642 156.2 286.883 156.197 287.123 156.192C287.282 156.197 287.44 156.2 287.6 156.2H342.4H346C347.787 156.2 349.492 155.845 351.046 155.201Z" fill="#414B5D"/>
<path fill-rule="evenodd" clip-rule="evenodd" d="M108.046 107.201C124.644 103.295 137 88.3905 137 70.6C137 49.8341 120.166 33 99.4 33C83.7714 33 70.3699 42.5351 64.6955 56.1053C59.2108 50.7208 51.6932 47.4 43.4 47.4C26.6105 47.4 13 61.0105 13 77.8C13 94.5895 26.6105 108.2 43.4 108.2C43.6418 108.2 43.883 108.197 44.1235 108.192C44.2816 108.197 44.4405 108.2 44.6 108.2H99.4H103C104.787 108.2 106.492 107.845 108.046 107.201Z" fill="#414B5D"/>
<path fill-rule="evenodd" clip-rule="evenodd" d="M194.046 243.201C210.644 239.295 223 224.39 223 206.6C223 185.834 206.166 169 185.4 169C169.771 169 156.37 178.535 150.696 192.105C145.211 186.721 137.693 183.4 129.4 183.4C112.611 183.4 99 197.011 99 213.8C99 230.589 112.611 244.2 129.4 244.2C129.642 244.2 129.883 244.197 130.123 244.192C130.282 244.197 130.44 244.2 130.6 244.2H185.4H189C190.787 244.2 192.492 243.845 194.046 243.201Z" fill="#414B5D"/>
<path fill-rule="evenodd" clip-rule="evenodd" d="M351.046 366.201C367.644 362.295 380 347.39 380 329.6C380 308.834 363.166 292 342.4 292C326.771 292 313.37 301.535 307.696 315.105C302.211 309.721 294.693 306.4 286.4 306.4C269.611 306.4 256 320.011 256 336.8C256 353.589 269.611 367.2 286.4 367.2C286.642 367.2 286.883 367.197 287.123 367.192C287.282 367.197 287.44 367.2 287.6 367.2H342.4H346C347.787 367.2 349.492 366.845 351.046 366.201Z" fill="#414B5D"/>
<path fill-rule="evenodd" clip-rule="evenodd" d="M121.046 362.201C137.644 358.295 150 343.39 150 325.6C150 304.834 133.166 288 112.4 288C96.7714 288 83.3699 297.535 77.6955 311.105C72.2108 305.721 64.6932 302.4 56.4 302.4C39.6105 302.4 26 316.011 26 332.8C26 349.589 39.6105 363.2 56.4 363.2C56.6418 363.2 56.883 363.197 57.1235 363.192C57.2816 363.197 57.4405 363.2 57.6 363.2H112.4H116C117.787 363.2 119.492 362.845 121.046 362.201Z" fill="#414B5D"/>
<circle cx="313.5" cy="69.5" r="2.5" fill="#474444"/>
<circle cx="304.5" cy="64.5" r="2.5" fill="#474444"/>
<path fill-rule="evenodd" clip-rule="evenodd" d="M303.243 86.4554C300.994 87.1145 298.346 86.9246 295.883 85.7335C292.828 84.2558 290.805 81.5983 290.276 78.815C289.092 81.9723 290.91 85.7865 294.53 87.5375C297.693 89.0677 301.238 88.5402 303.243 86.4554Z" fill="#2B2C2D"/>
</svg>
