<svg width="399" height="377" viewBox="0 0 399 377" fill="none" xmlns="http://www.w3.org/2000/svg">
<rect width="401" height="377" fill="#F0CC49"/>
<circle cx="96.7448" cy="84.5932" r="46.2692" fill="#FADA6A" fill-opacity="0.9"/>
<circle cx="96.2774" cy="84.1259" r="28.042" fill="#FCC605" fill-opacity="0.83"/>
<ellipse cx="109.364" cy="77.1154" rx="3.73893" ry="8.87995" transform="rotate(-43.6568 109.364 77.1154)" fill="#FFFCFC" fill-opacity="0.7"/>
<path fill-rule="evenodd" clip-rule="evenodd" d="M147.916 153.653C164.932 149.649 177.599 134.368 177.599 116.13C177.599 94.8409 160.341 77.5828 139.052 77.5828C123.03 77.5828 109.291 87.3581 103.473 101.27C97.8504 95.75 90.1434 92.3455 81.6413 92.3455C64.4289 92.3455 50.4755 106.299 50.4755 123.511C50.4755 140.724 64.4289 154.677 81.6413 154.677C81.8892 154.677 82.1364 154.674 82.3829 154.668C82.5451 154.674 82.708 154.677 82.8715 154.677L139.052 154.677L142.743 154.677C144.575 154.677 146.322 154.313 147.916 153.653Z" fill="#FCFFFF" fill-opacity="0.99"/>
<path fill-rule="evenodd" clip-rule="evenodd" d="M292.843 327.358C308.358 323.707 319.907 309.775 319.907 293.146C319.907 273.735 304.171 258 284.761 258C270.152 258 257.625 266.913 252.321 279.597C247.195 274.564 240.168 271.46 232.416 271.46C216.722 271.46 204 284.182 204 299.876C204 315.57 216.722 328.292 232.416 328.292C232.642 328.292 232.868 328.289 233.093 328.284C233.24 328.289 233.389 328.292 233.538 328.292H284.728C284.739 328.292 284.75 328.292 284.761 328.292C284.772 328.292 284.783 328.292 284.794 328.292H288.126C289.796 328.292 291.39 327.96 292.843 327.358Z" fill="#F8E5A8"/>
<path fill-rule="evenodd" clip-rule="evenodd" d="M355.241 366.475C370.756 362.824 382.305 348.892 382.305 332.262C382.305 312.852 366.57 297.117 347.159 297.117C332.551 297.117 320.024 306.029 314.72 318.714C309.593 313.681 302.566 310.577 294.814 310.577C279.121 310.577 266.399 323.299 266.399 338.993C266.399 354.686 279.121 367.408 294.814 367.408C295.041 367.408 295.266 367.406 295.491 367.401C295.639 367.406 295.787 367.408 295.936 367.408H347.126C347.137 367.408 347.148 367.408 347.159 367.408C347.17 367.408 347.182 367.408 347.193 367.408H350.524C352.195 367.408 353.788 367.076 355.241 366.475Z" fill="#FCFFFF" fill-opacity="0.99"/>
<path fill-rule="evenodd" clip-rule="evenodd" d="M355.241 89.9223C370.756 86.2713 382.305 72.3394 382.305 55.71C382.305 36.2995 366.57 20.5641 347.159 20.5641C332.551 20.5641 320.024 29.4769 314.72 42.1614C309.593 37.1283 302.566 34.0242 294.814 34.0242C279.121 34.0242 266.399 46.7464 266.399 62.4401C266.399 78.1337 279.121 90.8559 294.814 90.8559C295.04 90.8559 295.266 90.8533 295.491 90.848C295.639 90.8533 295.787 90.8559 295.936 90.8559H347.136C347.144 90.8559 347.152 90.8559 347.159 90.8559C347.167 90.8559 347.175 90.8559 347.183 90.8559H350.524C352.195 90.8559 353.788 90.5239 355.241 89.9223Z" fill="#FCFFFF" fill-opacity="0.99"/>
<path fill-rule="evenodd" clip-rule="evenodd" d="M101.739 317.783C119.506 313.602 132.732 297.648 132.732 278.604C132.732 256.376 114.712 238.357 92.4842 238.357C75.755 238.357 61.4098 248.563 55.3359 263.089C49.4649 257.325 41.4179 253.771 32.5407 253.771C14.569 253.771 0 268.34 0 286.311C0 304.283 14.569 318.852 32.5407 318.852C32.7997 318.852 33.058 318.849 33.3156 318.843C33.4847 318.849 33.6546 318.852 33.8253 318.852H92.4487C92.4605 318.852 92.4724 318.852 92.4842 318.852C92.496 318.852 92.5078 318.852 92.5196 318.852H96.3377C98.2508 318.852 100.075 318.472 101.739 317.783Z" fill="#FCFFFF" fill-opacity="0.99"/>
<path fill-rule="evenodd" clip-rule="evenodd" d="M289.81 215.176C305.325 211.525 316.874 197.593 316.874 180.964C316.874 161.554 301.139 145.818 281.728 145.818C267.12 145.818 254.593 154.731 249.289 167.415C244.162 162.382 237.135 159.278 229.383 159.278C213.69 159.278 200.967 172.001 200.967 187.694C200.967 203.388 213.69 216.11 229.383 216.11C229.609 216.11 229.835 216.107 230.06 216.102C230.207 216.107 230.356 216.11 230.505 216.11H281.695C281.706 216.11 281.717 216.11 281.728 216.11C281.739 216.11 281.75 216.11 281.761 216.11H285.093C286.764 216.11 288.357 215.778 289.81 215.176Z" fill="#FFFCFB"/>
<path fill-rule="evenodd" clip-rule="evenodd" d="M117.819 270.325C133.334 266.674 144.883 252.743 144.883 236.113C144.883 216.703 129.148 200.967 109.738 200.967C95.129 200.967 82.6022 209.88 77.2981 222.565C72.1714 217.532 65.1445 214.427 57.3925 214.427C41.6989 214.427 28.9767 227.15 28.9767 242.843C28.9767 258.537 41.6989 271.259 57.3925 271.259C57.6186 271.259 57.8441 271.257 58.0689 271.251C58.2167 271.257 58.3652 271.259 58.5142 271.259H109.704C109.715 271.259 109.726 271.259 109.738 271.259C109.749 271.259 109.76 271.259 109.771 271.259H113.103C114.773 271.259 116.366 270.927 117.819 270.325Z" fill="#FFFCFC" fill-opacity="0.53"/>
</svg>
